# xmcd
#
# Track frame offsets:
#	150
#	18440
#	34632
#	51232
#	67690
#	84100
#	106517
#	123407
#	144335
#	161952
#	182235
#	200702
#
# Disc length: 2905 seconds
#
# Revision: 2
# Processed by: cddbd v1.5.2PL0 Copyright (c) Steve Scherf et al.
# Submitted via: EasyCDDAExtractor 15.3.0.1
#
DISCID=970b570c
DTITLE=Varios Artistas - 12 Exitos Quemantes
DYEAR=1900
DGENRE=Latin
TTITLE0=Jon Secada - Cree En Nuestro Amor
TTITLE1=Daniela Romo - Que Vengan Los Bomberos
TTITLE2=Pandora - Pierdo El Control (Love Will Keep Us Together)
TTITLE3=Mazz - Que Sera
TTITLE4=Selena - Amame
TTITLE5=Mijares - Encadenado
TTITLE6=Paulina Rubio - Mio
TTITLE7=Alvaro Torres - Te Dejo Libre
TTITLE8=Ednita Nazario - Tres Deseos
TTITLE9=Jose Feliciano - Soy Alegre
TTITLE10=Angela Carrasco - Sabes Mentir (Si No Doliera Tanto)
TTITLE11=Eddie Santiago - Vivo Para Ti
EXTD=
EXTT0=
EXTT1=
EXTT2=
EXTT3=
EXTT4=
EXTT5=
EXTT6=
EXTT7=
EXTT8=
EXTT9=
EXTT10=
EXTT11=
PLAYORDER=
